/* XPM */
static const char *AboutDlg_WxStaticBitmap1_XPM[]={
/* AboutDlg_WxStaticBitmap1 */
"70 66 9 1",
"      c None",
"0     c #F70202",
"1     c #000000",
"2     c #FFFDFD",
"3     c #FBD8D7",
"4     c #202020",
"5     c #E5DBDB",
"6     c #B2562B",
"7     c #EA0A02",
"                                                                      ",
"                                                                      ",
"                                                                      ",
"   000000000000     111111111111111       0000000000000000000000      ",
"   000000000000     11111111111111        000000000000000000000       ",
"   000000000002     11111111111        000000000000000000000          ",
"   000000000003     1111111111        0000000000000000000000          ",
"   00000000000      111111111        000000000000000000000        1   ",
"   00000000000      11111111        0000000000000000000000        1   ",
"   00000000000      1111111        0000000000000000000000        11   ",
"   00000000000      1111111        000000000000000000000        111   ",
"   00000000000      111111        000000000000000000000        1111   ",
"   00000000000      11111        000000000000000000000        11111   ",
"   00000000000      1114       0000000000000000000000        111111   ",
"   00000000000      11        000000000000000000000        51111111   ",
"   00000000000      1        0000000000000000000000       111111111   ",
"   00000000000             0000000000000000000000        1111111111   ",
"   00000000000             000000000000000000000        11111111111   ",
"   00000000000            000000000000000000000         11111111111   ",
"   00000000000           000000000000000000000        1111111111111   ",
"   00000000000          000000000000000000000        11111111111111   ",
"   00000000000         000000000000000000000        111111111111111   ",
"   00000000000       2000000000000000000000        1111111111111111   ",
"   00000000000       0000000000000000000000        1111111111111111   ",
"   00000000000     00000000000000000000000       111111111111111111   ",
"   00000000000     0000000000000000000006        111111111111111111   ",
"   00000000000    000000000000000000000        11111111111111111111   ",
"   00000000000  000000000000000000000        1111111111111111111111   ",
"   00000000000 000000000000000000000        11111111111111111111111   ",
"   00000000000000000000000000000000        111111111111111111111111   ",
"   00000000000000000000000000000000        111111111111111111111111   ",
"   0000000000000000000000000000000        111111111111111111111111    ",
"   000000000000000000000000000000        1111111111111111111111111    ",
"   00000000000000000000000000006        1111111111111111111111115     ",
"   000000000000000000000000000         111111111111111111111111       ",
"   000000000000000000000000000        1111111111111111111111111       ",
"   0000000000000000000000000         111111111111111111111111         ",
"   0000000000000000000000000       1111111111111111111111111          ",
"   00000000000000000000000        111111111111111111111111            ",
"   0000000000000000000000        1111111111111111111111111        0   ",
"   000000000000000000000        1111111111111111111111111         0   ",
"   00000000000000000000        1111111111111111111111111         00   ",
"   000000000000000000         111111111111111111111111         7000   ",
"   000000000000000000        1111111111111111111111111         0000   ",
"   00000000000000000        1111111111111111111111111         00000   ",
"   0000000000000000        111111111111111111111111         0000000   ",
"   000000000000000        1111111111111111111111111         0000000   ",
"   00000000000000        1111111111111111111111111        000000000   ",
"   0000000000000        1111111111111111111111111         000000000   ",
"   00000000000        1111111111111111111111111         00000000000   ",
"   0000000000        1111111111111111111111111         000000000000   ",
"   000000000        1111111111111111111111111         0000000000000   ",
"   000000000       1111111111111111111111111         00000000000000   ",
"   00000000        111111111111111111111111         000000000000000   ",
"   000000        5111111111111111111111111         0000000000000000   ",
"   00000        11111111111111111111111115         0000000000000000   ",
"   0000         111111111111111111111111         000000000000000000   ",
"   000        1111111111111111111111111         0000000000000000000   ",
"   00         111111111111111111111111         00000000000000000000   ",
"   0        1111111111111111111111111         000000000000000000000   ",
"           111111111111111111111111         00000000000000000000000   ",
"          1111111111111111111111111        000000000000000000000000   ",
"         1111111111111111111111111         000000000000000000000000   ",
"                                                                      ",
"                                                                      ",
"                                                                      "};

