/* XPM */
static const char *KLBTOOLSFrm_KLBTOOLSFrm_XPM[]={
/* KLBTOOLSFrm_KLBTOOLSFrm */
"32 32 259 2",
"      c None",
" 0    c #C6C5C5",
" 1    c #797878",
" 2    c #818080",
" 3    c #E3E3E3",
" 4    c #908F8F",
" 5    c #000000",
" 6    c #0A0A0A",
" 7    c #C9C9C9",
" 8    c #919090",
" 9    c #0E0E0E",
" a    c #CACACA",
" b    c #989898",
" c    c #050505",
" d    c #181818",
" e    c #191919",
" f    c #100F0F",
" g    c #111111",
" h    c #CFCFCF",
" i    c #E1E1E1",
" j    c #454545",
" k    c #0F0E0E",
" l    c #979595",
" m    c #DADADA",
" n    c #D9D9D9",
" o    c #DBDBDB",
" p    c #C2C1C1",
" q    c #3A3A3A",
" r    c #080808",
" s    c #7C7C7C",
" t    c #F5F5F5",
" u    c #3B3B3B",
" v    c #282727",
" w    c #C8C7C7",
" x    c #E4E4E4",
" y    c #535252",
" z    c #020202",
" A    c #090909",
" B    c #828282",
" C    c #F9F9F9",
" D    c #D3D3D3",
" E    c #333333",
" F    c #2A2929",
" G    c #CAC9C9",
" H    c #FEFEFE",
" I    c #DDDCDC",
" J    c #474747",
" K    c #888888",
" L    c #FAFAFA",
" M    c #FECECF",
" N    c #FEE4E4",
" O    c #CECECE",
" P    c #747474",
" Q    c #6F6F6F",
" R    c #6F6E6E",
" S    c #A3A2A2",
" T    c #D6D6D6",
" U    c #3F3E3E",
" V    c #0C0C0C",
" W    c #8D8C8C",
" X    c #FEBABB",
" Y    c #FB3338",
" Z    c #FECACB",
" &    c #CFCECE",
"0     c #383737",
"00    c #101010",
"01    c #979696",
"02    c #FBFBFB",
"03    c #FEB2B4",
"04    c #FB1E24",
"05    c #FB0C12",
"06    c #FECCCD",
"07    c #FEFBFB",
"08    c #FEB8B8",
"09    c #FE9797",
"0a    c #FE9898",
"0b    c #FEA4A4",
"0c    c #FEEFEF",
"0d    c #302F2F",
"0e    c #141414",
"0f    c #A09F9F",
"0g    c #FCFBFB",
"0h    c #FEAAAC",
"0i    c #FB1A20",
"0j    c #FB0107",
"0k    c #FB0F15",
"0l    c #FEB9B9",
"0m    c #FE1D1D",
"0n    c #FE0101",
"0o    c #FE0303",
"0p    c #FD6B6B",
"0q    c #FEF2F2",
"0r    c #C0BFBF",
"0s    c #292828",
"0t    c #191818",
"0u    c #AAA9A9",
"0v    c #FEFCFC",
"0w    c #FDA1A3",
"0x    c #FB151B",
"0y    c #FB1117",
"0z    c #FED0D1",
"0A    c #FEAFAF",
"0B    c #FE1717",
"0C    c #FE0404",
"0D    c #FD7373",
"0E    c #FEF5F5",
"0F    c #BFBEBE",
"0G    c #212121",
"0H    c #1F1E1E",
"0I    c #B2B2B2",
"0J    c #FFFBFB",
"0K    c #FD9799",
"0L    c #FB040A",
"0M    c #FC7376",
"0N    c #FEF4F4",
"0O    c #FEA3A3",
"0P    c #FE1111",
"0Q    c #FE0606",
"0R    c #FD7C7C",
"0S    c #FEF7F7",
"0T    c #C1C0C0",
"0U    c #1E1D1D",
"0V    c #252424",
"0W    c #BBBBBB",
"0X    c #FFFAFA",
"0Y    c #FD8E91",
"0Z    c #FB0D13",
"0&    c #FC7174",
"1     c #FFF4F4",
"10    c #FE9696",
"11    c #FE0D0D",
"12    c #FE0707",
"13    c #FD8484",
"14    c #FFF9F9",
"15    c #B5B4B4",
"16    c #1A1919",
"17    c #C4C3C3",
"18    c #FD8588",
"19    c #FB0A10",
"1a    c #FC6F72",
"1b    c #D5D5D5",
"1c    c #E7E7E7",
"1d    c #FEFAFA",
"1e    c #FE8989",
"1f    c #FE0909",
"1g    c #FE0A0A",
"1h    c #FD8D8D",
"1i    c #BBBABA",
"1j    c #CDCDCD",
"1k    c #FFF6F6",
"1l    c #FC7B7E",
"1m    c #FB080E",
"1n    c #FC6E71",
"1o    c #FFF3F3",
"1p    c #C9CACA",
"1q    c #3D3D3D",
"1r    c #CCCCCC",
"1s    c #FE7C7C",
"1t    c #FE0505",
"1u    c #FD9696",
"1v    c #FE7272",
"1w    c #FD0609",
"1x    c #CBCCCC",
"1y    c #2D2D2D",
"1z    c #E5E6E6",
"1A    c #FFF5F5",
"1B    c #FE6F6F",
"1C    c #FD9393",
"1D    c #FE6969",
"1E    c #FD0104",
"1F    c #FB050B",
"1G    c #FC7276",
"1H    c #D2D3D3",
"1I    c #2E2E2E",
"1J    c #F7F7F7",
"1K    c #838383",
"1L    c #383838",
"1M    c #CDCECE",
"1N    c #FFF1F1",
"1O    c #FE6262",
"1P    c #FE0808",
"1Q    c #FD7C7E",
"1R    c #909090",
"1S    c #F4F4F4",
"1T    c #7B7B7B",
"1U    c #363636",
"1V    c #D4D5D5",
"1W    c #FEEAEA",
"1X    c #FE5757",
"1Y    c #FE0202",
"1Z    c #FE0F0F",
"1&    c #FD8888",
"2     c #FEF8F8",
"20    c #8D8D8D",
"21    c #F1F1F1",
"22    c #717171",
"23    c #8C8C8C",
"24    c #FDBDBD",
"25    c #FD6A6A",
"26    c #D0D0D0",
"27    c #EDEDED",
"28    c #676767",
"29    c #030303",
"2a    c #6D6D6D",
"2b    c #EFEFEF",
"2c    c #FECFCF",
"2d    c #FD3939",
"2e    c #FD2727",
"2f    c #FEC2C2",
"2g    c #8B8B8B",
"2h    c #121212",
"2i    c #E9E9E9",
"2j    c #5D5D5D",
"2k    c #070707",
"2l    c #787878",
"2m    c #FFCACA",
"2n    c #FD3030",
"2o    c #FD2B2B",
"2p    c #FECBCB",
"2q    c #898989",
"2r    c #545454",
"2s    c #010101",
"2t    c #818181",
"2u    c #FEC1C1",
"2v    c #FD2929",
"2w    c #FD1E1E",
"2x    c #FD8A8A",
"2y    c #FD2F2F",
"2z    c #FD3232",
"2A    c #FED3D3",
"2B    c #D1D1D1",
"2C    c #DEDEDE",
"2D    c #4A4A4A",
"2E    c #8A8A8A",
"2F    c #F8F8F8",
"2G    c #FFC0C0",
"2H    c #FDB7B7",
"2I    c #FEC5C5",
"2J    c #FD2A2A",
"2K    c #FD4444",
"2L    c #FFE0E0",
"2M    c #898A8A",
"2N    c #424242",
"2O    c #131313",
"2P    c #FFD6D6",
"2Q    c #FFBEBE",
"2R    c #FFBFBF",
"2S    c #FFDADA",
"2T    c #FFE8E8",
"2U    c #D7D7D7",
"2V    c #060606",
"2W    c #737373",
"2X    c #D4D4D4",
"2Y    c #969696",
"2Z    c #D2D2D2",
"2&    c #949494",
"3     c #939393",
"30    c #878787",
"31    c #EAEAEA",
"                                                                ",
"   0 1 1 1 1 1 1 1 1 1 1 1 1 1 1 1 1 1 1 1 1 1 1 1 1 1 1 1 2 3  ",
"   4 5 5 5 5 5 5 5 5 5 5 5 5 5 5 5 5 5 5 5 5 5 5 5 5 5 5 5 6 7  ",
"   8 5 5 5 5 5 5 5 5 5 5 5 5 5 5 5 5 5 5 5 5 5 5 5 5 5 5 5 9 a  ",
"   b 5 5 5 5 c d d d d d d d d d d d d d d d d e f 5 5 5 5 g h  ",
"   i j 5 5 5 k l m n n n n n n n n n n n n n o p q 5 5 5 r s t  ",
"     m u 5 5 5 v w                           x y z 5 5 A B C    ",
"       D E 5 5 5 F G H                     I J 5 5 5 6 K L M N  ",
"         O P Q Q R S L                   T U 5 5 5 V W L X Y Z  ",
"                                       &0  5 5 500010203040506  ",
"            0708090a0a0b0c           w0d 5 5 50e0f0g0h0i0j0k06  ",
"             H0l0m0n0n0o0p0q      0r0s 5 5 50t0u0v0w0x0j0j0y0z  ",
"                0A0B0n0n0C0D0E  0F0G 5 5 50H0I0J0K0y0j0j0L0M0N  ",
"                 H0O0P0n0n0Q0R0S0T0U 5 50V0W0X0Y0Z0j0j0L0&1     ",
"                  0v10110n0n1213141516 F171418190j0j0L1a1 1b1c  ",
"                    1d1e1f0n0n1g1h071i1j1k1l1m0j0j0L1n1o1p1q1r  ",
"                      141s1t0n0n111u  1 1v1w0j0j0L1n1o1x1y 9 O  ",
"                     C1z1A1B0o0n0n0P1C1D0C0n1E1F1G0q1H1I 5 g h  ",
"                  1J1K1L1M1N1O0n0n0n1t0n0n0n1P1Q0N  1R 5 5 g h  ",
"                1S1T r 51U1V1W1X1Y0n0n0n0n1Z1&2     20 5 5 g h  ",
"              2122 c 5 5 z23  240P0n0n0n0n2507      23 5 5 g26  ",
"            272829 5 5 c2a2b2c2d0n0n0n0n0n2e2f      2g 5 52h26  ",
"          2i2j z 5 52k2l t2m2n0n0n0n0n0n0n0n2o2p    2q 5 52h26  ",
"         x2r2s 5 5 A2t1J2u2v0n0n0n2w2x2y0n0n0n2z2A  2q 5 52h2B  ",
"      2C2D 5 5 5 V2E2F2G2o121P1P2e2H  2I2J1P1P122K2L2M 5 52h2B  ",
"     n2N 5 5 52O b H  2P2Q2R2R2R2S      2S2R2R2R2Q2T2M 5 52h2B  ",
"  2U q 5 5 52V2W26 D D1b2U2U2U2U1b D D D1b2U2U2U2U2X Q 5 52O2B  ",
"  2Y 5 5 5 5 z2O0e0e0e0e0e0e0e0e0e0e0e0e0e0e0e0e0e0e 6 5 52O2Z  ",
"  2& 5 5 5 5 5 5 5 5 5 5 5 5 5 5 5 5 5 5 5 5 5 5 5 5 5 5 52O2Z  ",
"  3  5 5 5 5 5 5 5 5 5 5 5 5 5 5 5 5 5 5 5 5 5 5 5 5 5 5 5002Z  ",
"  1j3030303030303030303030303030303030303030303030303030301R31  ",
"                                                                "};

