/* XPM */
static const char *ReadInfoDlg_WxBitmapButton1_XPM[]={
/* ReadInfoDlg_WxBitmapButton1 */
"83 76 9 1",
"      c None",
"0     c #F70202",
"1     c #000000",
"2     c #FEF2F2",
"3     c #FFFDFD",
"4     c #E5DBDB",
"5     c #D5E0C8",
"6     c #DDD0D0",
"7     c #C91F03",
"                                                                                   ",
"                                                                                   ",
"                                                                                   ",
"    00000000000000                                00000000000000000000000000       ",
"    00000000000000                               0000000000000000000000000         ",
"    00000000000000                               0000000000000000000000000         ",
"    00000000000000                             0000000000000000000000000           ",
"    00000000000000                            00000000000000000000000000           ",
"    00000000000000                            00000000000000000000000000           ",
"    00000000000000                          00000000000000000000000000             ",
"    00000000000000                         0000000000000000000000000          1    ",
"    00000000000000                        0000000000000000000000000          11    ",
"    00000000000000                      200000000000000000000000000         111    ",
"    00000000000000                    0000000000000000000000000          111111    ",
"    00000000000000                   00000000000000000000000000          111111    ",
"    00000000000000                   0000000000000000000000000          1111111    ",
"    00000000000000                  00000000000000000000000000         11111111    ",
"    00000000000000                 000000000000000000000000000        111111111    ",
"    00000000000000               0000000000000000000000000         111111111111    ",
"    00000000000000              0000000000000000000000000          111111111111    ",
"    00000000000000             3000000000000000000000000         11111111111111    ",
"    00000000000000           000000000000000000000000000        111111111111111    ",
"    00000000000000           000000000000000000000000000       4111111111111111    ",
"    00000000000000          00000000000000000000000000        11111111111111111    ",
"    00000000000000         00000000000000000000000000         11111111111111111    ",
"    00000000000000         000000000000000000000000           11111111111111111    ",
"    00000000000000       0000000000000000000000000          4111111111111111111    ",
"    00000000000000      0000000000000000000000000          11111111111111111111    ",
"    00000000000000    000000000000000000000000000        1111111111111111111111    ",
"    00000000000000   000000000000000000000000000        11111111111111111111111    ",
"    00000000000000   0000000000000000000000000          11111111111111111111111    ",
"    00000000000000   0000000000000000000000000        1111111111111111111111111    ",
"    00000000000000  0000000000000000000000000         1111111111111111111111111    ",
"    0000000000000000000000000000000000000000         11111111111111111111111111    ",
"    000000000000000000000000000000000000000          11111111111111111111111111    ",
"    00000000000000000000000000000000000000         1111111111111111111111111111    ",
"    000000000000000000000000000000000000         111111111111111111111111111111    ",
"    00000000000000000000000000000000000          11111111111111111111111111111     ",
"    000000000000000000000000000000000         111111111111111111111111111111       ",
"    00000000000000000000000000000000          1111111111111111111111111111         ",
"    000000000000000000000000000000          11111111111111111111111111111          ",
"    000000000000000000000000000000          1111111111111111111111111111           ",
"    00000000000000000000000000000          11111111111111111111111111111           ",
"    0000000000000000000000000000         11111111111111111111111111111             ",
"    0000000000000000000000000000        111111111111111111111111111111             ",
"    0000000000000000000000000          1111111111111111111111111111                ",
"    0000000000000000000000000         11111111111111111111111111111           0    ",
"    000000000000000000000000         111111111111111111111111111111          00    ",
"    00000000000000000000000         11111111111111111111111111111           000    ",
"    00000000000000000000000        41111111111111111111111111111          50000    ",
"    00000000000000000000          1111111111111111111111111111            00000    ",
"    00000000000000000000          1111111111111111111111111111           000000    ",
"    000000000000000000          111111111111111111111111111111          0000000    ",
"    00000000000000000         1111111111111111111111111111111         000000000    ",
"    00000000000000000        4111111111111111111111111111111          000000000    ",
"    00000000000000000        11111111111111111111111111111          00000000000    ",
"    0000000000000000        111111111111111111111111111116         000000000000    ",
"    00000000000000         11111111111111111111111111111         00000000000000    ",
"    000000000000         11111111111111111111111111111          000000000000000    ",
"    000000000000        111111111111111111111111111111         0000000000000000    ",
"    000000000         1111111111111111111111111111111         00000000000000000    ",
"    000000000        111111111111111111111111111111           00000000000000000    ",
"    000000000        111111111111111111111111111111           00000000000000000    ",
"    000000          11111111111111111111111111111          00000000000000000000    ",
"    00000          1111111111111111111111111111           000000000000000000000    ",
"    0000          1111111111111111111111111111          00000000000000000000000    ",
"    000          41111111111111111111111111111          00000000000000000000000    ",
"    0           1111111111111111111111111111          7000000000000000000000000    ",
"             1111111111111111111111111111114          0000000000000000000000000    ",
"             111111111111111111111111111111           0000000000000000000000000    ",
"           41111111111111111111111111111           0000000000000000000000000000    ",
"           11111111111111111111111111111           0000000000000000000000000000    ",
"           1111111111111111111111111111           00000000000000000000000000000    ",
"                                                                                   ",
"                                                                                   ",
"                                                                                   "};

